# xmcd CD database file
#
# Track frame offsets:
#	150
#	15676
#	28680
#	46228
#	59580
#	75914
#	88579
#	102616
#	118806
#	137820
#	150962
#	170636
#	192000
#	214219
#	238522
#
# Disc length: 3419 seconds
#
# Revision: 1
# Processed by: cddbd v1.5.2PL0 Copyright (c) Steve Scherf et al.
# Submitted via: CDex 1.70beta2
#
DISCID=c40d590f
DTITLE=Gaither Vocal Band - Happy Rhythm - Gaither Gospel Series
DYEAR=2015
DGENRE=Gospel 2011-2020
TTITLE0=Love Is Like a River - Suzanne Jennings, Jeff Silvey
TTITLE1=Redeemed - Traditional
TTITLE2=Amazing Grace - Traditional
TTITLE3=Shut de Do - Mark Hayes, Bob Marley, Randy Stonehill
TTITLE4='Til the Storm Passes By - Mosie Lister
TTITLE5=Lonely Mile - Henry Slaughter
TTITLE6=Do Unto Others - With The Nelons - Traditional
TTITLE7=I Don't Want To Get Adjusted - With The Goodman Revival - Johnny Minick, Michael Sykes
TTITLE8=Winds of This World - Charles Johnson
TTITLE9=Jesus and John Wayne - Benjamin Gaither, Gloria Gaither, William J. Gaither, Douglas Johnson, Kim Williams
TTITLE10=How Can I Keep From Singing - With Buddy Greene - Robert Lowry, Ira D. Sankey
TTITLE11=Building Bridges - With Charlotte Ritchie - Gloria Gaither, Dony McGuire
TTITLE12=I Know Who Holds Tomorrow - With The Isaacs - Ira F. Stanphill
TTITLE13=Sow Mercy - Dony McGuire, Reba Rambo-McGuire
TTITLE14=Happy Rhythm - Mosie Lister
EXTD=YEAR: 2015
EXTT0=
EXTT1=
EXTT2=
EXTT3=
EXTT4=
EXTT5=
EXTT6=
EXTT7=
EXTT8=
EXTT9=
EXTT10=
EXTT11=
EXTT12=
EXTT13=
EXTT14=
PLAYORDER=
